<svg width="20" height="20" viewBox="0 0 20 20" fill="none" xmlns="http://www.w3.org/2000/svg">
<g clip-path="url(#clip0_56214_1375)">
<path d="M18.617 8.039C18.3602 7.86663 18.1284 7.65988 17.9279 7.42446C17.9428 7.09668 18.0086 6.77324 18.1232 6.46581C18.3384 5.73706 18.6065 4.83011 18.0898 4.12043C17.5694 3.40511 16.6187 3.38109 15.8549 3.36157C15.5336 3.3744 15.2122 3.33986 14.901 3.25902C14.7298 2.99059 14.5992 2.69845 14.5132 2.39193C14.2583 1.66614 13.9409 0.762801 13.0906 0.4865C12.2656 0.218368 11.5253 0.727796 10.8724 1.17578C10.6101 1.38525 10.3155 1.55082 10.0002 1.66611C9.68476 1.55096 9.39005 1.38535 9.12766 1.17578C8.4748 0.727402 7.73422 0.219582 6.90942 0.4865C6.05942 0.762801 5.74204 1.66568 5.4869 2.39164C5.40108 2.69661 5.27185 2.98767 5.10319 3.25587C4.79097 3.33917 4.46795 3.3747 4.1451 3.36128C3.38135 3.38077 2.43064 3.40481 1.91022 4.1201C1.39354 4.83018 1.66161 5.73713 1.87689 6.46594C1.99007 6.77176 2.05654 7.09288 2.07403 7.41852C1.87443 7.65726 1.64169 7.86624 1.38291 8.03903C0.766667 8.50899 0 9.09407 0 9.99945C0 10.9048 0.766667 11.4899 1.38304 11.9599C1.63976 12.1323 1.87164 12.339 2.07212 12.5744C2.05723 12.9022 1.99135 13.2256 1.87682 13.5331C1.66158 14.2618 1.39348 15.1688 1.91015 15.8785C2.43057 16.5938 3.38129 16.6178 4.14507 16.6374C4.46638 16.6245 4.78779 16.6591 5.09903 16.7399C5.27015 17.0083 5.40082 17.3005 5.48681 17.607C5.74195 18.3329 6.05932 19.2362 6.90951 19.5125C7.06013 19.5619 7.21767 19.587 7.37619 19.587C8.01606 19.587 8.60035 19.1854 9.12773 18.8232C9.39008 18.6137 9.68463 18.4481 9.99997 18.3328C10.3154 18.4479 10.6101 18.6135 10.8726 18.8231C11.5254 19.2715 12.2658 19.7789 13.0908 19.5124C13.9408 19.2361 14.2582 18.3332 14.5133 17.6073C14.5991 17.3023 14.7284 17.0112 14.897 16.743C15.2093 16.6597 15.5323 16.6242 15.8551 16.6376C16.6189 16.6181 17.5696 16.5941 18.09 15.8788C18.6067 15.1687 18.3386 14.2617 18.1233 13.533C18.0102 13.2271 17.9437 12.906 17.9262 12.5804C18.1258 12.3416 18.3585 12.1327 18.6173 11.9599C19.2333 11.4899 20 10.9048 20 9.99945C20 9.09407 19.2333 8.50899 18.617 8.039ZM13.7142 8.50532L9.54752 12.672C9.22221 12.9974 8.69471 12.9975 8.36929 12.6722C8.36923 12.6721 8.36916 12.672 8.3691 12.672L6.28576 10.5886C5.95621 10.2674 5.94952 9.73975 6.27079 9.4102C6.59207 9.08066 7.11968 9.07396 7.44922 9.39524C7.45427 9.40016 7.45926 9.40515 7.46418 9.4102L8.95831 10.9044L12.5358 7.32686C12.8571 6.99731 13.3847 6.99065 13.7142 7.31193C14.0438 7.63321 14.0504 8.16081 13.7291 8.49036C13.7242 8.49544 13.7192 8.5004 13.7142 8.50532Z" fill="#22C55E"/>
</g>
<defs>
<clipPath id="clip0_56214_1375">
<rect width="20" height="20" fill="white"/>
</clipPath>
</defs>
</svg>
